<svg width="1600" height="1000" viewBox="0 0 1600 1000" fill="none" xmlns="http://www.w3.org/2000/svg">
  <rect width="1600" height="1000" fill="#020715"/>
  <rect x="40" y="40" width="1520" height="920" rx="42" fill="url(#bg)"/>
  <ellipse cx="1276" cy="236" rx="250" ry="170" fill="#24D9FF" opacity=".16"/>
  <ellipse cx="340" cy="812" rx="350" ry="190" fill="#7068FF" opacity=".15"/>
  <rect x="216" y="166" width="1168" height="668" rx="38" fill="#06111F" opacity=".84" stroke="url(#edge)" stroke-width="2"/>
  <rect x="302" y="262" width="392" height="454" rx="38" fill="#08182A" stroke="#55E8FF" stroke-opacity=".28"/>
  <rect x="836" y="262" width="426" height="454" rx="38" fill="#08182A" stroke="#55E8FF" stroke-opacity=".28"/>
  <path d="M430 636C430 568 484 514 552 514H584C652 514 706 568 706 636V716H430V636Z" fill="#0C2943" stroke="#6EF0FF" stroke-width="4"/>
  <path d="M514 514L612 322" stroke="#92FFFF" stroke-width="16" stroke-linecap="round"/>
  <path d="M610 322C656 292 714 296 754 332" stroke="#78F4FF" stroke-width="14" stroke-linecap="round" opacity=".8"/>
  <path d="M484 424H548M572 462H642M454 572H674" stroke="#8BFBFF" stroke-width="12" stroke-linecap="round" opacity=".72"/>
  <circle cx="1048" cy="452" r="132" fill="#0C2943" stroke="#7DF6FF" stroke-width="8"/>
  <path d="M1048 334V452L1134 530" stroke="#9AFFFF" stroke-width="12" stroke-linecap="round" stroke-linejoin="round"/>
  <path d="M922 650C954 610 998 590 1054 590C1112 590 1164 612 1210 656" stroke="#6EF0FF" stroke-width="12" stroke-linecap="round" opacity=".76"/>
  <path d="M346 742C418 774 494 786 574 778M722 344C770 318 822 306 878 308M1226 342C1272 362 1306 396 1328 444" stroke="#77F4FF" stroke-width="8" stroke-linecap="round" opacity=".58"/>
  <g fill="#B9FFFF">
    <circle cx="462" cy="424" r="7"/>
    <circle cx="930" cy="650" r="7"/>
    <circle cx="1328" cy="444" r="7"/>
  </g>
  <defs>
    <linearGradient id="bg" x1="150" y1="106" x2="1448" y2="912" gradientUnits="userSpaceOnUse">
      <stop stop-color="#061327"/>
      <stop offset=".58" stop-color="#082846"/>
      <stop offset="1" stop-color="#16436F"/>
    </linearGradient>
    <linearGradient id="edge" x1="216" y1="166" x2="1384" y2="834" gradientUnits="userSpaceOnUse">
      <stop stop-color="#ACFFFF" stop-opacity=".86"/>
      <stop offset="1" stop-color="#3064FF" stop-opacity=".22"/>
    </linearGradient>
  </defs>
</svg>
